/* XPM */
static char *wall[] = {
/* columns rows colors chars-per-pixel */
"64 43 29 1 ",
"  c #17120E",
". c #19130F",
"X c #1B1612",
"o c #1F1915",
"O c #1F1B18",
"+ c #211A16",
"@ c #231D19",
"# c #281F1A",
"$ c #26211D",
"% c #2B221D",
"& c #30251F",
"* c #272320",
"= c #2B2522",
"- c #2F2925",
"; c #322721",
": c #342A24",
"> c #382E27",
", c #352D29",
"< c #382F29",
"1 c #37312D",
"2 c #39312C",
"3 c #3C3531",
"4 c #3F3833",
"5 c #443B36",
"6 c #4B423E",
"7 c #534D49",
"8 c #5A544F",
"9 c #5B5652",
"0 c #635D59",
/* pixels */
"X=--%+##+:;;;:<:+2,%,2222+$$#-@@+XO$*-:;;;X#O**=@-oO-@$#O=@O@+=;",
"@,1;:&:;@:;=;;;;+<&#-;;:>@,;;::::+,,%++%+++,;,<::;#-:;;:<,@::=O+",
"%2;;&:&:.O+X@@=@ ,%%,;:,;%;%%:;%:+,;%*,,;,#:,<;;;;@,;;;;:;@,;%*,",
"-:;%&:&&-,:@<:>:+,;%*%;%#:::;;;:;+,;%-;;;=X%$X++*+O,:;%;;;@:;%=;",
"$;;-;;:&$::@,;;;+,&#$:---@;;;;;;;+-%@*%%*==2:+2,,,@,;;;;;;@=%#*%",
"$;;;;;&&$,;+:%&&+,:#-&&;;XOO+o@#+.*-==-===@:;+<;;;@,:;;;;;@%====",
"$;;;;;%,+==*****X1;@-;;;;@12<<32<=<;;;;;;;+:;+,;&;@,,;;;#;%,;;;;",
"+:;;;;,:*:;;;;;;+2>%=;&&;@:;:<:&;+,;%%:;;;X$$$$%$%+,;;;;:;@,;=%;",
"$:;;&,>:+;;%;;;%%$@o-&&:;%:::=;;;+;;:::>%&@,:;:&::*,;;;;;;#-,::;",
"@:;&:<:;$:;:;;;<%2:%+%%#@%><:;;;%+,;;,>;:;+:;%&::;#;;;;;;;#,:;;;",
"X+o%;o++$:;;;;::+2&@=,,=:$>&&:;;:+,;:,;;;;+:&:::<:@+++=+X#O1;;;;",
"$,:2,+2>O%%%%;:%X<:%-;=;,$&%&%%%%+-;;%%%&%@:&::>:;@,:,>:#<-*%%%%",
"-;;;;o,&o--;:+--O:%+-%=%%O=-,%+=#+=,=@O=,=O-%;:&%;#,;;;;#>@*==#O",
"$;;=;X+X$;;,,O:;+$==%==%=@:&:%=;:=3;;*=;;;X==-*X*=O,;-;,+o+,;;;*",
"$;;;;+32$-;;;O1;%1;;;;;;;+;;&%=&:%:;;;#;;;+:;;;X,;@;;;,,$3*;;;&@",
"*;;;;+,;-;;;;+,;+1;%;:;;;$:;:%=&;+,%;%=;;;#,;;;O<;=,;;:;@;@:%;=%",
"$;;;;O,&$;;:;%,;+,;:2:&%;X++X++$+o,;:%%;;,,:;;&+<;@,;;;;$:@,;-;=",
"O+XO=O@@X+++=O+OX1:>:&&:;$,,+1:,,@+++@$#@$+:;;;#2:@o+X@$O+X+++$-",
",:%,:><2$,:,:,::+2,:;&;;&;:;$2%;;+<,>,><5;$,;;;+<;#,:+2,,,@-<<3,",
"%%@:::>:%:%&;;;;@2%&&&&&%$::$,:;;@<;@;::&;%:;;;+2:=-;+<;;;#::;;;",
",;%,:::&,;::&:%:$=*$+@=:=+2>+,;;;;,;:><;%;@:;%;@5:@,;#<;;;;<>,;;",
";;@$#+++$;&;&&>>%2;;%=;;;@,;+,;;;+,;:,;;;;X=;#$$-$O;;o@+@+O2;;;;",
";;%12<<<O+++@+#@.,;;%%;;,+$+$$@$=X@@@#+++++,;:,>;;#,;o2<33,@++++",
";:%,;%;;+,<,:>,<+<%;%=;,,$,;;::;,@,<,,,,>,@,::>;;;@=;+<$;,@-<,,;",
";:#;&:&&%;;;&:&&+1:;%=>>:@:;;;;;;+,;;;;;;;=,:;;;;;#,;+,:;;+,;;;;",
"%%O::&:&%;:;%&&:+++O@@X++.++o++=+.,;;;$;;;@,<;;;;;#=#X,;;;#,;;;@",
"*=+,&:;;%:2;,&&%+2,:,<+2,-,:+2,2<#2;;;:;#;@,;;;;;;+$-+<;;&#,;;;,",
";5+o+@o+=2:;;;;,%<;;&;+>;#:;+>:>;+,;;;;;:;@:;;;;#;#,:@@@++ :;;;;",
";9@,1,,2=,;;;;;;o,,;%:X@o+:;O3,:;+,;;;;;;;+;;;;;,;%2,+32><$,;;;;",
";9+,;;;2X+$-Oo+$X2,;:&X31X@#$*$@$X+@%=X*=@@,;;;;;;%2:+,;;:@+@%=X",
"@9X@@%%+$:::%-;:#3:;&;+<;@,<2:::-@,:;,@4::@,;;;;;,%:-+<;;;@-><:+",
"+9:,,3,,$;;;$=;:#1;;;;+<;O:<%;;;%+,;;>@2;=.@+@%X$*Xo++@=@+X<>;;X",
";9;;>:;;@:;;%-:<+++++%X@+$2;:;;;:+,;,:o<:;@<:,,@5,@,>,>:>:%2;;;X",
"#0%&;;;;.++XX@%+ 2:%-,,,:%,;;;;;:++@#+ @$+%,;%:@>;#,;#&;::#++++ ",
"*6::;;#;$2,@532<@,;%-;;;;@;;&&=&;+43,;=,<<@:;;;X+++,;:;;::#,<,:$",
"*7;;;;,;-:;@,#;;+2;%,;;;;.$-=%X$$%3;;%=;;;+,;;;+4<$:;;:,>:%,;;=*",
"=9-;;;;;@-;+,:;;+2=#@@+++@,;;;+,;@;#;%#;;;@,;;;+2;@@+++@++X=#&&#",
"O9@++#%+$:;@:;;;#,%#-3,,,@:;;;+,;+,,;==;;;$<;;;X2;@-<<,,,,$:,;=%",
",7;%=,,,@-;@,;;&+<:%2-%;;-:=;;+<;+$#@#$@@%+@XX%+@+X,;;;;;;#$###%",
";8;#-;=:+++o++#% <:=-;:;;#:;;:%2;@=,=-,+11@>=-,,,;$,;;=%;;@=-=,3",
":9;#=;:<$<:,,,>,$,,#=;;;;$:&:>+<;#>;;;;+<;@,#-;;;&=2;;::;%+,;,,;",
":9;#-:<;$;;;;;&:%-=@-;;;;%:,>:+<;#>;;#:@<;+:;,;;;,%:;;&;;:%,:;%;",
";;;#,<;;-;;;;;;:@2;#X+#XX#,>;;#<;+,;:>>+*$@,#XX+@#.,;;;;;;#2>::;"
};
