/* XPM */
static char *_c1d05b7bdd9461efa327b364f4aa09a9G3BEIc2gIUGHaiC[] = {
/* columns rows colors chars-per-pixel */
"64 64 174 2 ",
"   c #008080",
".  c white",
"X  c #484848",
"o  c gray36",
"O  c #2C2C2C",
"+  c gray22",
"@  c gray25",
"#  c gray33",
"$  c #646464",
"%  c #504C3C",
"&  c #484438",
"*  c #3C3828",
"=  c #5C5844",
"-  c #302C1C",
";  c gray44",
":  c #642C28",
">  c #582824",
",  c #4C2020",
"<  c #542C18",
"1  c gray8",
"2  c gray11",
"3  c #0C0C0C",
"4  c gray14",
"5  c #586048",
"6  c #686048",
"7  c #00001C",
"8  c #000024",
"9  c #080C38",
"0  c #040428",
"q  c #181C48",
"w  c #101440",
"e  c #040830",
"r  c #202450",
"t  c #303860",
"y  c #484C70",
"u  c #7C7C7C",
"i  c gray55",
"p  c gray66",
"a  c #989898",
"s  c #703428",
"d  c #582818",
"f  c #60341C",
"g  c #502014",
"h  c #7C3C2C",
"j  c #6C3C24",
"k  c #746C4C",
"l  c #282C58",
"z  c #3C4068",
"x  c #646880",
"c  c #545878",
"v  c #70788C",
"b  c #3C2020",
"n  c #482828",
"m  c #687084",
"M  c #341818",
"N  c #7C7850",
"B  c #481C10",
"V  c #401C1C",
"C  c #281414",
"Z  c #38140C",
"A  c #884030",
"S  c #503030",
"D  c #5C3C40",
"F  c #785060",
"G  c #886074",
"H  c #6C4450",
"J  c #402824",
"K  c #B4B4B4",
"L  c #18100C",
"P  c #242014",
"I  c black",
"U  c #744028",
"Y  c #5C3838",
"T  c #CC9474",
"R  c #C08464",
"E  c #A88080",
"W  c #BC9494",
"Q  c #945C40",
"!  c #A06848",
"~  c #804C30",
"^  c #B88060",
"/  c #34201C",
"(  c #B47858",
")  c #281814",
"_  c #A46C50",
"`  c #8C583C",
"'  c #1C0C0C",
"]  c #401810",
"[  c #787C94",
"{  c #280C08",
"}  c #301008",
"|  c #200C04",
" . c #BC6C00",
".. c #984830",
"X. c #DCA400",
"o. c #9C7474",
"O. c #FCFC20",
"+. c #180804",
"@. c #A45030",
"#. c #9C3C00",
"$. c #946868",
"%. c #888054",
"&. c #948C58",
"*. c #A0986C",
"=. c #80889C",
"-. c #888CA4",
";. c cyan",
":. c #C8CCD8",
">. c #C0C0C0",
",. c #646C50",
"<. c #9CA0B4",
"1. c #684040",
"2. c #744C4C",
"3. c #543030",
"4. c #7C5454",
"5. c #845034",
"6. c #78482C",
"7. c #986044",
"8. c #643820",
"9. c #7C8860",
"0. c #886060",
"q. c #B48C8C",
"w. c #405030",
"e. c #D0D0D0",
"r. c #583018",
"t. c #303000",
"y. c #1C1C00",
"u. c #F8F8F8",
"i. c #E4E4E4",
"p. c #304020",
"a. c #D4B0B0",
"s. c #A07C84",
"d. c #AC8890",
"f. c #500404",
"g. c #C8A0A0",
"h. c #AC7454",
"j. c #C48C6C",
"k. c #ECD0AC",
"l. c #580000",
"z. c #400000",
"x. c #946C7C",
"c. c #BC989C",
"v. c #1C0000",
"b. c #D4A07C",
"n. c #DCB08C",
"m. c #E4C09C",
"M. c #404000",
"N. c #140000",
"B. c #340000",
"V. c #280000",
"C. c #0C0804",
"Z. c #A4A8B8",
"A. c #140808",
"S. c #002000",
"D. c #B4B8C8",
"F. c #0C0C00",
"G. c #D0D4E0",
"H. c #ECE4E0",
"J. c gray99",
"K. c #D0C800",
"L. c #005000",
"P. c #700000",
"I. c #0C2404",
"U. c #1C3410",
"Y. c #B05C34",
"T. c #BC6434",
"R. c #C86C34",
"E. c #D47834",
"W. c #E08430",
"Q. c #781818",
"!. c #041400",
"~. c #8C2828",
"^. c #4C0C10",
"/. c #640C0C",
/* pixels */
"o o o o o $ $ $ $ $ $ $ o o o o # X X @ @ X # o # o o # # # # # # # X X X # X X # X X # # + + + @ + + + + + 4 4 + @ + + + + O + ",
"# o o o o o o $ $ $ $ $ $ $ o o # # # o # # # # # # # # X X X # # # o # # # X # # X # @ + + + + + O + O + O O O + + + @ + + + O ",
"# o $ o u $ $ $ $ $ u $ ; $ $ o o # # o o # # X X X X @ @ X X X X # # # X # # # # X X @ + + + + + + + + + u X + + + + u X + # + ",
"# $ o $ $ @ $ $ $ $ $ @ $ $ $ o # # # # # X X X @ @ @ @ + X X X X # X # # X # # # o # X @ + + + + + + + + X 4 + + + + X 4 + + + ",
"# # o $ $ ; o o $ $ $ $ $ $ $ # # # X X X X @ @ @ @ @ @ + X X # # # o o # X X X # # # # # # @ @ @ + + + + + + + + + O O + + + + ",
"# o o $ $ o o o o o o $ $ $ o o X X X X X X @ @ @ @ @ @ + + X X X X # X # X X X # X # # # # X X @ @ @ @ @ + + + + + + O + + + + ",
"# # o $ $ o # # # # o o o o # # X X X X X X X @ @ @ @ @ @ @ X X # # # o o X # # # o o o # # # X X @ @ @ @ @ @ @ + + + + + + + + ",
"o # # $ u $ # # @ @ @ @ @ @ + + O O O + O O + @ + + + + + O O O O O O + + + + @ @ @ @ @ @ + + + + O O O O O + + X + + u X @ + @ ",
"o o o o $ @ # # @ # o o o o o X @ X # # X X # # # X X X X X @ @ @ @ @ @ X X # o o o o o o # # X X @ + + @ @ X # u X @ X 4 + @ + ",
"o # o # # # # # @ o $ $ $ o o # # # # # # # o $ $ # # # # X @ @ @ @ @ @ X X # o # # # # # o # # X X + + + @ X o u # # # @ X @ + ",
"# o o # o # # # @ $ $ u $ o o # # # u # o $ o o o o u X # X X @ @ @ @ u X X # # X X X X u X # X X X @ @ u X X # u o o # + + + @ ",
"o o o o # o # o @ $ $ $ @ $ o o # X # O o o o # # # X 4 # X X X @ @ X X 4 X X X X X X X X 4 # X X X X X X 4 X # u o o # X + + + ",
"o o o o # o o o @ $ $ o $ $ + @ + + + + @ + + + + + + O O O O O O O O O O O O O O O O O O O O O O O @ + X X X X u o o # X @ @ + ",
"o o o o o o o $ @ $ o o o o @ # # # # # # # # o o X # # o X # # o # o # # # # # # X # X X X X X X # ; # X X X X u # # # X @ + + ",
"o o o o o o $ $ @ $ o o o o @ # # # # o # # # # # # # # # # # # # o o # # # # # # # X X X @ @ @ X X ; # # X X @ u X X X @ + + O ",
"o o o o o o $ $ @ o o o o o @ # # # # o # # # # # # # # # # # # # # # # # # # # # # X X X @ @ @ @ X ; # # + X X u @ @ @ @ + O 1 ",
"o o o o o o o $ @ o o o o o @ # # # # # # # # # # # # # # # # # # # # # # # # # # X X X X @ @ @ @ @ ; X X X @ @ u @ @ @ @ + O 4 ",
"o $ o o o o o $ @ o o o o $ @ # o o # # # # # # # # # # # # # # # # # # # # # # # X X X X @ @ @ @ @ $ X X X X + u @ @ @ + + + O ",
"o $ $ $ o o o $ @ o o o o $ @ # # # # # # # # # # # # # # # # # # # # # # # # X X X X X X @ @ @ @ @ $ X X X X @ u @ @ @ + + + 4 ",
"o $ o $ $ o o o @ o o u $ $ X # # # # # # # # # # # # # # # # # # # # # # # # X X X X X X @ @ @ @ @ $ X u X X @ u @ @ @ @ + O 4 ",
"o o $ o $ o o # @ o o $ @ ; X # # # # # # # # # # # # # # # # # # # # # # # # X X X X X X @ @ @ @ @ $ X X 4 X X u X X X @ + O 4 ",
"o o $ $ $ o # # + $ $ $ $ ; X # # # # # # # # # o # # # # # # # # # # # # # # # # X X o X X @ @ @ @ $ @ X X X X u X X X @ + O 4 ",
"$ o $ $ o # X # + o $ o $ $ @ # # # # # # # # # o # # # # # # # # # # X X # # # # # # o X X X @ @ @ $ @ @ X # # u X X @ + + O 4 ",
"$ o $ $ o # # # + o $ o $ $ @ X # # # # # # # X X # # # # # X X # # # o # # # # # # # o # X X X @ @ $ @ @ X # # u # X @ + O O 4 ",
"o $ $ $ o o o o @ # $ $ $ o @ o # # # # # # # # X # # # # # X X X X # # # # # # # # # # # X X X @ @ $ @ X X X # u # X @ + O O O ",
"o $ $ o o $ $ $ @ $ $ $ $ o + # # # # # # # # # X # # X X # X X X X # X # # # # # # X # X X X X X X ; X X X # # u # X @ + + O 4 ",
"o o o o o $ $ $ @ $ o ; ; $ + # # # # # # # # # # X X X X X X X # # # o o # # # # # # X X X # # # # ; X # # # # u X X @ @ + O O ",
"$ o $ o o o $ $ @ $ o u $ ; + o # # # # # # # # # X X X X X X # X # # # # # # # # # # X # # o # # # ; # u X # # u X X X @ + O 4 ",
"+ # # # u o o $ + $ $ $ @ ; + o # # # # # # # # # X X X X # # # o o # # # # # # # # # # # # # # # o ; # X 4 # # u X @ u X + O O ",
"X X X X o + o $ + $ $ $ ; u @ # # # # # # # # # X X X X # # # o o # # # # # # # # # # # # # # # # o ; # # # # # u X @ X 4 + O 4 ",
"X @ X X X # o $ + $ ; $ ; u @ # o o # # # # # X X X # # # o o # # # # # X X # # # o o # # # o o o o ; X X X # # u X X @ @ + O O ",
"X @ X X X # o o + ; ; ; u u @ o o o # # # # # X X o # # # # # X X # # # o # # # # o o # # # o o o # ; X X X X # u X X @ @ + + 4 ",
"+ X X X X o # o + ; ; ; ; u @ # o o X X # # X X X o # # # X X X X X X # # # # # # # # # # # # # # X ; @ @ X X X u X @ @ @ + + @ ",
"+ X X X # o o o + $ ; ; ; u @ o o # X X # # # # o o # # # X X X X X X # X # X X # # # # # # # # # X ; X X X # X u @ @ @ + + + O ",
"@ # # # # o o o + $ $ $ $ u @ # o # X X # # # # o o # # # X X X X # # # o o # # # # # # # # # # # # ; X X # # # u @ @ @ + + + + ",
"@ o # # # # # # + $ $ u o ; @ X X # # # # # # # # # # # # X X X # # # o o # # # # # # # # # # # # # ; X u X # # u X X @ + + O 4 ",
"@ # X X u o # # + $ $ o + ; @ X X # # # # # # # # # # # # X X # # # o o # # # # # # # # # # # # # X ; # X 4 o # u # X u X + O O ",
"+ X X X o + X # + $ $ ; ; ; + X X # # # # # # # # # # # # # # # # # # # # # # # # # # X X # # # # # u o o o o # u X X X 4 + + + ",
"X X X X X X X # O o $ $ ; ; + X # # # # # o o # # # # # # # # # # # # o o # # # # # X X # # # # o o u # # o # # u X @ @ + + + + ",
"X X X X X X X X O # o o $ ; + X # # # # # o o o o # # # # # # # # # # # o # # # # X # # # # # # # o ; # X # # X u @ @ @ + + @ + ",
"@ X # X X X X X O # # o o $ + @ X # # # # o o o o # # # # # # # # # # # # # # # X X # # # X X # # o ; # X X X X u @ @ @ @ @ @ + ",
"X X X X X X X X O # # o o $ + @ X # # # # o o o o # # # # # # # # # # # # # # X X X X # # X X # # o ; # X X X @ u @ @ + @ @ @ @ ",
"X X X # X X X X O # # o o $ + @ X # # # # o o o # # # # # # # # # # # # # X X X X X # # # X X # # o ; # X X X @ u @ @ @ @ X @ @ ",
"# X X # X X X # + o o u o o + X X # # # # o o # # # # # # # # # # X # # X # X X # X # # # X X # # o ; # u X X @ u @ @ @ X X X X ",
"o # X # # X X # + o o o + o O # X # # # # # # # # # # # # # # # # X # # # # # # # # # # # # # # # $ u o X 4 X X u @ @ X X # X X ",
"$ o # # o X X # @ o $ $ o o O # # # # o # # # # # # # # # # # # # # # # o # # # # # # # # # # # # $ u # # # X X u X X X X # X # ",
"; $ o # X # X # + o $ $ o # + # o # # o # # # # # # # # # # # # o o # # o # # o # o # # o # o # # o u # # X X X u X X X # # X # ",
"u ; $ o # o # X + $ o o o # O # # # o o # # # # # # # # # # # # o # # # o o # o o X # # # # # # # o ; X X X @ + u X # # # # o # ",
"u u ; $ o # # X + # o # # # + X X X # o # # # # # # # # # o o # o o X # # o # # o X # # # o X # # # $ @ X X X # u # # # # # X # ",
"u $ ; ; $ o # # + o o # # # @ @ X X @ + X # # # # # X X # # o # # o X # # @ @ + @ # o # # o X # # # $ X X X # # u # # # X X # # ",
"; $ ; ; ; $ $ # + o $ $ o # @ @ @ @ @ + @ @ + @ @ @ @ + @ @ @ @ + @ @ @ + + @ X @ @ @ @ + @ @ @ @ + $ @ X X X X u X X X X X # o ",
"u ; ; ; ; ; ; $ @ ; ; $ o o @ u u u u u u u u u u u u u u u $ u u $ u u o # o ; ; o ; o ; ; ; ; ; ; u + @ @ @ @ u @ X # # # # X ",
"$ ; ; ; ; ; ; u @ u u ; $ o o o o o o $ $ ; ; u ; u ; u u $ # $ $ # $ o # X # # X @ X @ X @ @ @ @ @ @ + @ @ @ @ u X # o o o # # ",
"$ ; ; ; u u u u @ u u u o $ o o o o o u o ; ; u ; u ; u $ $ o $ $ # $ u # X # # X @ X @ u # @ @ @ @ @ + u X @ @ u X # o $ o o o ",
"o $ $ u u u u u @ u u o + ; $ o o $ $ o + ; ; u ; u ; $ @ ; o $ o # o # O # # X X @ X @ # O @ X @ @ @ X X 4 @ + u @ X # o o o # ",
"@ # o ; u o u u # u u u u ; ; $ $ $ $ ; ; ; u u ; ; ; ; ; ; o o # # # # X X X @ @ @ @ @ @ @ @ @ @ @ @ @ @ @ + + u + @ u X o o # ",
"X X o ; o + u u ; i i u u u u u u u u u u u u u u u u u u u u u u u u u u u u u u u u u u u u u u u u u u u u u i + + X 4 o o # ",
"# # o ; ; u u u u u u u ; ; $ $ # o $ ; ; $ $ ; ; $ $ $ $ $ # # # X X X X X @ @ @ @ @ @ X @ X @ X @ @ @ @ @ + + + + @ # o o o o ",
"o o o $ $ ; u u u u u u ; ; $ $ $ o o o o $ $ $ $ $ $ $ o o # # # # X X # # X @ X X @ @ @ @ @ X X X X @ @ @ + + + @ X # o # # # ",
"$ $ $ ; u u u u u u u u u ; $ ; ; $ o $ $ # $ # $ o o o o o o o # # X # # # # X X X X X @ @ @ X X X X X @ @ @ + @ @ X # # # X # ",
"; ; ; u u o ; u ; $ u o ; ; # $ ; ; $ ; $ $ o o $ ; $ $ $ ; $ $ o o o o # X # # X X X X @ @ @ X X X X X X u # + @ X X u X X # # ",
"; $ ; u o + ; ; o o o + ; $ ; $ ; $ o $ o o ; $ ; ; ; ; u u ; $ $ o o o # # # o X # X X X X @ @ @ X X X @ # O @ @ X # X 4 # o # ",
"X $ ; ; u ; $ $ o X X o $ u u u $ $ o o $ u ; ; ; u u u u ; ; ; o o o # # # # # # + @ X X X X @ @ X X @ @ + @ + @ X # # # # # # ",
"4 + $ o o o # X X O X @ o $ ; ; $ # + O + # $ $ o o o o o o o # # # # # # X X X X + O + X @ X @ @ @ @ + + 4 4 4 4 O # # # # X # "
};
