/* XPM */
static char *a76ab634d26444a8816d58f5d0d54845eatG5DK2I4aB1iJZ[] = {
/* columns rows colors chars-per-pixel */
"64 64 4 1 ",
"  c black",
". c red",
"X c #FF6B00",
"o c #FFF200",
/* pixels */
"                                                                ",
"                                                                ",
"                                                                ",
"                                                                ",
"                                  ..                            ",
"                                  ..                            ",
"                              ......                            ",
"                              ......                            ",
"                            ..........                          ",
"                            ..........                          ",
"                          ..........                            ",
"                          ..........                            ",
"                          ......                                ",
"                          ......                                ",
"                          ....    ......                        ",
"                          ....    ......                        ",
"                          ....  ........                        ",
"                          ....  ........                        ",
"                          ..  ......                            ",
"                          ..  ......                            ",
"                          ..........                            ",
"                          ..........                            ",
"                        ............                            ",
"                        ............                            ",
"                        ..............                          ",
"                        ..............                          ",
"                      ................                          ",
"                      ................                          ",
"                    ........XXXXXX....                          ",
"                    ........XXXXXX....                          ",
"                  ..........XXooXXXX..  ....                    ",
"                  ..........XXooXXXX..  ....                    ",
"                ............XXooXXXX..  ....                    ",
"                ............XXooXXXX..  ....                    ",
"              ............XXXXoooo....  ......                  ",
"              ............XXXXoooo....  ......                  ",
"              ..........XXXXXXoooo....  ..........              ",
"              ..........XXXXXXoooo....  ..........              ",
"                ......XXXXXXoooo....  ....XX........            ",
"                ......XXXXXXoooo....  ....XX........            ",
"            ..  ....XXXXXXXXoo..........XXXXXX......            ",
"            ..  ....XXXXXXXXoo..........XXXXXX......            ",
"            ..    ..XXXXXXoooo......ooXXXXXXXXXX....            ",
"            ..    ..XXXXXXoooo......ooXXXXXXXXXX....            ",
"            ....  ....XXooooooooooooooooXXXXXXXX......          ",
"            ....  ....XXooooooooooooooooXXXXXXXX......          ",
"          ............XXooooooooooooooooXXXXXXXX......          ",
"          ............XXooooooooooooooooXXXXXXXX......          ",
"          ............XXooooooooooooooooXXXXXXXX......          ",
"          ............XXooooooooooooooooXXXXXXXX......          ",
"            ..........XXooooooooooooooooXXXXXXXX....            ",
"            ..........XXooooooooooooooooXXXXXXXX....            ",
"            ....XXXX....XXooooooooooooXXXXXXXXXX....            ",
"            ....XXXX....XXooooooooooooXXXXXXXXXX....            ",
"          ......XXXXXXXXXXXXooooooooXXXXXXXXXXXX..              ",
"          ......XXXXXXXXXXXXooooooooXXXXXXXXXXXX..              ",
"          ......XXXXXXXXXXXXXXXXXXXXXXXXXXXXXXXX                ",
"          ......XXXXXXXXXXXXXXXXXXXXXXXXXXXXXXXX                ",
"                                                                ",
"                                                                ",
"                                                                ",
"                                                                ",
"                                                                ",
"                                                                "
};
