/* XPM */
static char *_632e0db834f4cc8c5f8df8090c68847m7rvzRfRRGmQ3xxm[] = {
/* columns rows colors chars-per-pixel */
"64 64 4 1 ",
"  c black",
". c red",
"X c #FF6B00",
"o c #FFF200",
/* pixels */
"                                                                ",
"                                                                ",
"                                                                ",
"                                                                ",
"                                            ....                ",
"                                            ....                ",
"          ....                              ......              ",
"          ....                              ......              ",
"          ......                            ..                  ",
"          ......                            ..                  ",
"            ........                    ......                  ",
"            ........                    ......                  ",
"              ........                    ....                  ",
"              ........                    ....                  ",
"                ..............            ....                  ",
"                ..............            ....                  ",
"                  ....XX........          ..                    ",
"                  ....XX........          ..                    ",
"                  ....XXXX......      ..                        ",
"                  ....XXXX......      ..                        ",
"                    ......XXXX......                            ",
"                    ......XXXX......                            ",
"                    ........XX..........                        ",
"                    ........XX..........                        ",
"                    ........XXXX..........                      ",
"                    ........XXXX..........                      ",
"                  ........ooXXXX........                        ",
"                  ........ooXXXX........                        ",
"                ..........ooXXXX........                        ",
"                ..........ooXXXX........                        ",
"                ..........XXooooXX......                        ",
"                ..........XXooooXX......                        ",
"                ..........XXooooXXXX....  ..                    ",
"                ..........XXooooXXXX....  ..                    ",
"                  ......XXXXXXooooXX....  ..                    ",
"                  ......XXXXXXooooXX....  ..                    ",
"            ....    ....XXXXXXooooXXXX  ....                    ",
"            ....    ....XXXXXXooooXXXX  ....                    ",
"            ......    XXXXXXooooooooXXXX......                  ",
"            ......    XXXXXXooooooooXXXX......                  ",
"            ........XXXXXXXXooooooooXXXX......                  ",
"            ........XXXXXXXXooooooooXXXX......                  ",
"            ......XXXXXXXXooooooooooooXXXX......                ",
"            ......XXXXXXXXooooooooooooXXXX......                ",
"            ......XXXXXXooooooooooooooooXXXXXX..                ",
"            ......XXXXXXooooooooooooooooXXXXXX..                ",
"          ........XXXXXXooooooooooooooooXXXXXX..                ",
"          ........XXXXXXooooooooooooooooXXXXXX..                ",
"          ......XXXXXXXXooooooooooooooooXXXXXX..                ",
"          ......XXXXXXXXooooooooooooooooXXXXXX..                ",
"            ....XXXXXXXXooooooooooooooooXXXX....                ",
"            ....XXXXXXXXooooooooooooooooXXXX....                ",
"            ....XXXXXXXXXXooooooooooooXXXXXX..                  ",
"            ....XXXXXXXXXXooooooooooooXXXXXX..                  ",
"          ......XXXXXXXXXXXXooooooooXXXXXX....                  ",
"          ......XXXXXXXXXXXXooooooooXXXXXX....                  ",
"          ......XXXXXXXXXXXXXXXXXXXXXXXX....                    ",
"          ......XXXXXXXXXXXXXXXXXXXXXXXX....                    ",
"                                                                ",
"                                                                ",
"                                                                ",
"                                                                ",
"                                                                ",
"                                                                "
};
