/* XPM */
static char *c1f8d219e052470bd1decc1dda0517dcQXHH0yVuy9qZSrmL[] = {
/* columns rows colors chars-per-pixel */
"64 64 4 1 ",
"  c black",
". c red",
"X c #FF6B00",
"o c #FFF200",
/* pixels */
"                                                                ",
"                                                                ",
"                                    ..............              ",
"                                    ..............              ",
"                                  ................              ",
"                                  ................              ",
"                              ....................              ",
"                              ....................              ",
"                            ..................                  ",
"                            ..................                  ",
"                          ..........XX........                  ",
"                          ..........XX........                  ",
"                        ..........XXXX......                    ",
"                        ..........XXXX......                    ",
"                      ..........XX........                      ",
"                      ..........XX........                      ",
"                      ........XXXX......                        ",
"                      ........XXXX......                        ",
"                      ........XXXX....                          ",
"                      ........XXXX....                          ",
"                      ........XXXX....  ......                  ",
"                      ........XXXX....  ......                  ",
"                      ........XXXX....  ......                  ",
"                      ........XXXX....  ......                  ",
"                    ..........XXXX............                  ",
"                    ..........XXXX............                  ",
"                  ............XXXX..........                    ",
"                  ............XXXX..........                    ",
"                  ..........XXXXXX..........                    ",
"                  ..........XXXXXX..........                    ",
"                  ........XXXXooXXXX........                    ",
"                  ........XXXXooXXXX........                    ",
"              ..    ......XXXXooXXXXXX......                    ",
"              ..    ......XXXXooXXXXXX......                    ",
"              ....    ..XXXXXXooooXXXXXX......                  ",
"              ....    ..XXXXXXooooXXXXXX......                  ",
"            ........  ..XXXXXXooooXXXXXXXX........              ",
"            ........  ..XXXXXXooooXXXXXXXX........              ",
"            ..........XXXXXXooooooXXXXXXXXXX........            ",
"            ..........XXXXXXooooooXXXXXXXXXX........            ",
"            ........XXXXXXXXooooooooXXXXXXXXXX......            ",
"            ........XXXXXXXXooooooooXXXXXXXXXX......            ",
"            ......XXXXXXXXooooooooooooXXXXXXXXXX..              ",
"            ......XXXXXXXXooooooooooooXXXXXXXXXX..              ",
"            ......XXXXXXooooooooooooooooXXXXXXXX    ..          ",
"            ......XXXXXXooooooooooooooooXXXXXXXX    ..          ",
"          ........XXXXXXooooooooooooooooXXXXXX    ....          ",
"          ........XXXXXXooooooooooooooooXXXXXX    ....          ",
"          ......XXXXXXXXooooooooooooooooXXXXXXXX......          ",
"          ......XXXXXXXXooooooooooooooooXXXXXXXX......          ",
"            ....XXXXXXXXooooooooooooooooXXXXXXXX....            ",
"            ....XXXXXXXXooooooooooooooooXXXXXXXX....            ",
"            ....XXXXXXXXXXooooooooooooXXXXXXXXXX....            ",
"            ....XXXXXXXXXXooooooooooooXXXXXXXXXX....            ",
"          ......XXXXXXXXXXXXooooooooXXXXXXXXXXXX..              ",
"          ......XXXXXXXXXXXXooooooooXXXXXXXXXXXX..              ",
"          ......XXXXXXXXXXXXXXXXXXXXXXXXXXXXXXXX                ",
"          ......XXXXXXXXXXXXXXXXXXXXXXXXXXXXXXXX                ",
"                                                                ",
"                                                                ",
"                                                                ",
"                                                                ",
"                                                                ",
"                                                                "
};
