/* XPM */
static char *a56e521bb4214c0ad603e77186224168T9p5LdrTq6IYkQYQ[] = {
/* columns rows colors chars-per-pixel */
"64 64 174 2 ",
"   c #008080",
".  c white",
"X  c #484848",
"o  c gray36",
"O  c #2C2C2C",
"+  c gray22",
"@  c gray25",
"#  c gray33",
"$  c #646464",
"%  c #504C3C",
"&  c #484438",
"*  c #3C3828",
"=  c #5C5844",
"-  c #302C1C",
";  c gray44",
":  c #642C28",
">  c #582824",
",  c #4C2020",
"<  c #542C18",
"1  c gray8",
"2  c gray11",
"3  c #0C0C0C",
"4  c gray14",
"5  c #586048",
"6  c #686048",
"7  c #00001C",
"8  c #000024",
"9  c #080C38",
"0  c #040428",
"q  c #181C48",
"w  c #101440",
"e  c #040830",
"r  c #202450",
"t  c #303860",
"y  c #484C70",
"u  c #7C7C7C",
"i  c gray55",
"p  c gray66",
"a  c #989898",
"s  c #703428",
"d  c #582818",
"f  c #60341C",
"g  c #502014",
"h  c #7C3C2C",
"j  c #6C3C24",
"k  c #746C4C",
"l  c #282C58",
"z  c #3C4068",
"x  c #646880",
"c  c #545878",
"v  c #70788C",
"b  c #3C2020",
"n  c #482828",
"m  c #687084",
"M  c #341818",
"N  c #7C7850",
"B  c #481C10",
"V  c #401C1C",
"C  c #281414",
"Z  c #38140C",
"A  c #884030",
"S  c #503030",
"D  c #5C3C40",
"F  c #785060",
"G  c #886074",
"H  c #6C4450",
"J  c #402824",
"K  c #B4B4B4",
"L  c #18100C",
"P  c #242014",
"I  c black",
"U  c #744028",
"Y  c #5C3838",
"T  c #CC9474",
"R  c #C08464",
"E  c #A88080",
"W  c #BC9494",
"Q  c #945C40",
"!  c #A06848",
"~  c #804C30",
"^  c #B88060",
"/  c #34201C",
"(  c #B47858",
")  c #281814",
"_  c #A46C50",
"`  c #8C583C",
"'  c #1C0C0C",
"]  c #401810",
"[  c #787C94",
"{  c #280C08",
"}  c #301008",
"|  c #200C04",
" . c #BC6C00",
".. c #984830",
"X. c #DCA400",
"o. c #9C7474",
"O. c #FCFC20",
"+. c #180804",
"@. c #A45030",
"#. c #9C3C00",
"$. c #946868",
"%. c #888054",
"&. c #948C58",
"*. c #A0986C",
"=. c #80889C",
"-. c #888CA4",
";. c cyan",
":. c #C8CCD8",
">. c #C0C0C0",
",. c #646C50",
"<. c #9CA0B4",
"1. c #684040",
"2. c #744C4C",
"3. c #543030",
"4. c #7C5454",
"5. c #845034",
"6. c #78482C",
"7. c #986044",
"8. c #643820",
"9. c #7C8860",
"0. c #886060",
"q. c #B48C8C",
"w. c #405030",
"e. c #D0D0D0",
"r. c #583018",
"t. c #303000",
"y. c #1C1C00",
"u. c #F8F8F8",
"i. c #E4E4E4",
"p. c #304020",
"a. c #D4B0B0",
"s. c #A07C84",
"d. c #AC8890",
"f. c #500404",
"g. c #C8A0A0",
"h. c #AC7454",
"j. c #C48C6C",
"k. c #ECD0AC",
"l. c #580000",
"z. c #400000",
"x. c #946C7C",
"c. c #BC989C",
"v. c #1C0000",
"b. c #D4A07C",
"n. c #DCB08C",
"m. c #E4C09C",
"M. c #404000",
"N. c #140000",
"B. c #340000",
"V. c #280000",
"C. c #0C0804",
"Z. c #A4A8B8",
"A. c #140808",
"S. c #002000",
"D. c #B4B8C8",
"F. c #0C0C00",
"G. c #D0D4E0",
"H. c #ECE4E0",
"J. c gray99",
"K. c #D0C800",
"L. c #005000",
"P. c #700000",
"I. c #0C2404",
"U. c #1C3410",
"Y. c #B05C34",
"T. c #BC6434",
"R. c #C86C34",
"E. c #D47834",
"W. c #E08430",
"Q. c #781818",
"!. c #041400",
"~. c #8C2828",
"^. c #4C0C10",
"/. c #640C0C",
/* pixels */
"X # X @ + @ @ + n b b b 4 O + @ @ X $ o # X X X # X @ + @ @ + n b b b 4 O + O O + X + n S 2.$ o # X # # # o 2.2.o o ; ; o # # X ",
"o o # o o o o o o o o o $ ; ; $ $ $ o o o o # o o # o o o o o o o o o $ ; ; $ $ $ $ $ 2.$ $ o o o o o o o o o o o o o $ o o # o ",
"$ 4.4.4.0.4.4.$ o X ; ; o @ O O O @ @ O O O @ $ 4.4.4.0.4.4.$ $ ; ; ; $ o X @ X 2.4.0.4.4.2.o o o $ 4.; o X X X # $ o o ; o o $ ",
"4.2.4.2.2.2.4.4.o o $ $ $ ; o X @ # ; o X @ # 4.2.4.2.2.2.4.4.; $ $ $ $ o o # X o ; 4.2.4.2.$ $ 2.2.2.4.o X X 1.2.4.2.2.4.2.2.4.",
"$ o 2.2.2.2.2.2.2.2.2.4.2.2.$ ; ; $ $ $ $ $ $ $ o 2.2.2.2.2.2.2.2.2.4.2.2.$ ; 4.4.4.$ o X o $ o 2.2.1.2.4.2.1.1.1.2.2.4.2.2.$ $ ",
"@ @ @ @ @ X 1.2.4.4.2.2.2.1.X # o $ # + + + + @ @ @ @ @ X 1.2.4.4.2.2.2.1.X 1.; 4.; X O O X o @ + X X X X X # X @ @ # o $ $ $ @ ",
"S S X X @ @ @ $ 4.; o o o # X @ + S 1.X S S S S S X X @ @ @ $ 4.; o o o # X 1.2.2.o X @ O X o X + @ # o o o # # X X # o $ $ ; S ",
"S S X X X 1.4.1.4.4.2.1.2.$ # + @ @ X 1.X S + S S X X X 1.4.1.4.4.4.; 4.$ # X X 1.# # S n X # @ @ X X o o o 1.1.# # o ; 4.4.4.S ",
"u u u u ; $ $ $ $ $ $ ; u u u $ $ $ $ $ ; u u u u u u ; $ $ $ $ $ $ ; c m m u $ $ ; u u u ; $ ; ; u ; ; $ $ ; u u ; $ $ $ $ $ u ",
"o o o o $ $ $ $ $ $ c c c m c m $ o # # o o o o o o o $ $ $ $ $ $ $ 4.4.4.; ; ; ; o o ; u ; u u ; ; ; $ o o o o 2.2.# + 4 4 O o ",
"# # # # o o X @ # # # o o o o o 2.4.4.; $ $ # # # # # o $ $ $ $ $ $ 4.u u 4.u 4.$ c c $ 4.4.4.u 4.4.2.2.1.2.2.2.2.2.o X o ; X # ",
"# # X # o o X X X X # o o o 2.1.1.2.4.o $ o X # # X # o $ $ $ $ ; ; 4.4.u 4.u 4.; o # # ; $ $ $ $ $ 2.2.2.2.o o $ ; 2.1.# o X # ",
"$ o o o o o X X X X # # # o o # 2.2.2.o o o X $ o o o o o o o o o $ $ $ $ 4.4.; ; o ; 4.; $ $ $ ; ; $ $ $ $ $ ; ; 4.2.2.2.2.2.$ ",
"; ; o o o ; ; ; u u ; ; $ $ o # # o $ $ o o o o o o o o ; ; ; u 4.; ; $ $ o o ; u ; # X O # o @ O + X o # # # # X # o o o o o ; ",
"; u # # # ; u ; o o X X + O n + X # # n + X # # X # # # ; u ; u u 4.4.; o o o ; u u o S S 1.o @ O + X o $ o o X @ # # X # # # ; ",
"; 4.$ $ o ; 4.4.$ # + @ @ + + @ # # # + @ # # # # $ $ o ; 4.; 4.2.2.4.4.$ # X o 4.$ @ n n + # @ + @ X o $ $ o X + O # # $ $ o ; ",
"o 2.; $ o o 2.; $ $ X # X X X X # # # X X # # # o ; $ o o 2.2.$ $ $ ; ; $ $ $ # # # $ 4.$ o $ o X # # o $ $ 2.2.# # # o ; $ o o ",
"$ $ o o $ $ o $ o o o $ $ ; ; 4.4.u ; ; 4.4.; $ $ o o $ $ o $ o o o $ $ ; ; ; ; ; ; ; $ $ ; ; ; ; $ $ $ 2.4.4.4.; ; 4.4.4.4.4.$ ",
"@ o o # @ + O O + + + + + 4 1 O + + + O + + + @ o o # @ + O O + + + + + 4 1 1 2 + X + + X o $ o X S @ X 1.1.# 2.4.4.; $ o ; 4.@ ",
"@ $ u u $ o o o # X X X @ O 2 + + + + + + O 4 @ $ 4.4.$ o o o # X X X @ O 2 2 2 + X + + X # o # # X X X # # # 2.4.; ; $ o o o @ ",
"X ; u u ; $ $ o # X X X X + + + X X + + O O O X ; 4.4.; $ $ o # X X X X + + @ @ @ # @ + # # # # # # # # # # $ 4.4.; ; $ o # X X ",
"4.4.; ; ; $ $ o o o o o $ ; ; 2.2.2.2.2.2.2.4.4.4.; ; ; $ $ o o o o o $ ; ; 4.; ; ; $ ; ; ; ; ; $ $ ; ; ; $ $ $ $ ; ; ; ; ; ; 4.",
"X X 1.2.2.4.; $ $ $ u u 4.1.X X X o ; $ 2.2.2.X X 1.2.2.4.; $ $ $ u u 4.1.X X X # # # @ n X o o 1.X + + O + @ X + @ X @ + + @ X ",
"X @ X o o $ 4.2.2.1.X o 1.n b O + + + + @ # # X @ X o o $ 4.2.2.1.X o 1.n b n n X # X S + X 2.4.4.X S + + 4 r t + + O O O O X X ",
"X @ # $ 4.u ; $ o # @ 4 + @ + + + + + + X # # X @ # $ 4.u ; $ o # @ 4 + @ b b b + X @ + @ @ o u 4.2.X S + 4 r r # m c t r r t X ",
"# # # $ 4.u 4.$ o o # X X # 2.+ X # X X # # # # # # $ 4.u 4.$ o o # X X 3.1.1.X S @ @ @ @ X o o # # X X X X # c m m c # # # # # ",
"; $ $ o o o o $ ; $ $ $ $ $ c c c m c m $ o # # # o o o o o $ ; ; ; ; ; ; $ $ ; ; 4.u u ; ; o o o $ ; ; ; 4.; $ o $ $ $ o o o ; ",
"@ X # + 4 O @ X o o X @ # # # o o o o o 2.4.4.; $ o # 4 O @ X o o # @ 4.4.4.2.$ ; ; ; 4.2.2.1.S + + 1.2.1.X X X S 1.1.S 4 O @ @ ",
"+ X X + + @ o 4.; o X X X X # o o o 2.1.1.2.4.o $ o # + @ o 4.; o o X 2.2.2.1.2.4.4.2.X 2.4.2.X X 1.1.1.1.X S S S 1.1.+ O + o + ",
"4 @ X O O + # 4.; o X X X X # # # o o # 2.2.2.o o o X X + # 4.; o o 3.X X X X X 1.2.2.1.o $ 1.X X 1.2.2.2.1.X S S 1.2.S O + # 4 ",
"4.; 4.4.4.; $ o # o o o o $ u o $ ; $ u u u u u ; u u u $ $ o # o o o o $ u u u u u u ; ; $ ; u ; ; ; u u u u u u u u u ; ; ; 4.",
"; $ # @ X # # o u u ; o @ X # # X # # 1.2.X o ; $ # @ X # $ o u o o o u o X X X X X # $ + S 2.4.4.4.2.2.1.S X 1.S n + + + + @ ; ",
"o o # X X X # $ u ; X o @ X X O O O O O X X # o o # X X X # o u o + + + @ @ X X X X X o + S 2.4.4.2.2.2.1.S S X X + @ @ S + S o ",
"o o o # X @ # c o # @ o X ; ; o @ O O O @ # # o o o # X @ # c u 3.@ @ X # 1.X 1.1.X + + n S 2.2.1.1.1.S @ X @ @ @ X X @ + + S o ",
"o o o o # X # $ ; $ o o o $ $ $ ; o X @ # o o o o o o # X # $ ; o o o o $ 2.2.2.2.2.1.# X # o $ 2.2.1.1.# # 1.; ; ; ; ; ; ; ; o ",
"2.2.; ; ; 4.; $ $ $ ; ; ; $ $ $ $ $ $ $ $ $ o o o o o ; u ; $ ; ; ; ; ; $ ; ; ; ; ; u u ; ; $ o o o ; ; ; ; $ $ ; ; ; ; u u ; 2.",
"1.2.; o o $ # # # # # # o # $ $ X X o o o o $ $ $ o # o $ # # # # # o o # + n n X 2.4.u $ o $ # @ # # # 1.X X + S 2.4.; o $ ; 1.",
"X $ ; $ # $ u ; c # # # o ; o ; o # o $ o # # o o o X # $ u # # # # # X ; 2.S S 1.o 4.$.4.4.m c X X # # X @ + n S 2.u u 4.1.X X ",
"X 4.4.o o $ u ; # # # X X # $ u u 4.; ; ; $ o o $ o X o $ u # # # # X X X @ + @ # $ 4.$.$.4.m c # o $ $ 2.1.X 1.1.2.4.4.2.2.2.X ",
"; $ $ $ $ $ $ $ $ $ $ $ c c o $ $ $ o $ o o o o $ ; 2.$ $ H $ $ $ $ $ c c c m c m $ o # # o o o o o ; ; ; ; ; ; ; ; ; ; ; ; 4.; ",
"o $ $ ; ; $ o o @ X # # X # # 1.2.# # o # # o o $ $ ; ; $ o o X @ # # # o o o o o 2.4.4.; $ $ # + O n n n + O 4 O X o # # ; 4.o ",
"o $ $ ; ; $ o o @ X X O O O O O X t t X # o # o $ $ ; ; o o o X X X X # o o o 1.1.1.2.4.o $ o X O O O @ @ @ @ + @ X @ X X # $ o ",
"$ ; 4.u ; ; ; o X ; ; o @ O O O @ @ X # # # # $ ; 4.u ; ; ; o X X X X # # # o o o 2.2.2.o o o X O O + X # X @ + O + X o # X o $ ",
"$ $ $ $ $ $ $ o o $ $ $ ; o X @ # o $ $ $ $ $ $ $ $ X $ $ $ $ $ $ o o o o o $ $ o $ $ $ $ ; ; ; ; 4.4.; 2.4.; ; ; $ $ $ $ $ $ $ ",
"o o ; ; X X o o o o $ $ $ o # # # # # # X X @ @ X $ X # X o o o o $ $ $ o # o o # o # # # X X X @ + @ o $ # X X # o $ ; o o o o ",
"# # ; u o # o $ o # # o o o X + n n n O O 4 2 4 @ o X # # o $ o # # o o o X @ + + X X X @ X X X @ @ + @ X @ @ X # o o o # X # # ",
"$ o ; 4.u 4.; ; ; $ o o $ o X + + X 2.2.X + n b S $ X u 4.; ; ; $ o o $ o X + + O @ X + X X X X + + + @ + @ X # X o o o # # $ $ ",
"$ o o 2.$ $ o $ o o o o $ ; 2.+ + X o 2.X S + + X D X $ $ o $ o o o o $ ; 2.1.X X o o X # X o # # # X X # # # # 1.2.2.1.# o ; $ ",
"; ; o o o o o o o o ; ; ; ; ; o o o # # o ; ; ; ; o o o o o o o o ; ; ; ; ; ; ; ; ; ; ; # o X o ; ; o $ o o o o o o 2.2.2.2.2.2.",
"4 4 + X @ O O X o # 1.1.1.1.1.4.$ $ ; # O 2 2 4 4 X X @ O O X o # 1.1.1.1.1.X # # X + 4 2 4 @ X + + # o # X X X X # o o 2.2.$ 4 ",
"@ @ + @ + 4 O X # # X 1.2.2.1.$ $ u 4.o X @ @ @ @ + @ + 4 O X # # X 1.2.2.1.X X # X @ + 4 O @ @ + @ @ @ X X X X X # o o o o $ @ ",
"+ n O O O 4 4 @ X X X # o $ 2.o # ; 4.1.S + + + n O O O 4 4 @ X X X # o $ 2.X S X X S O 2 4 X X @ @ + O + @ @ # # # # # o o o + ",
"$ $ $ ; $ o o o o o o o $ $ $ # # # # # # $ $ $ $ $ ; $ o o o o o o o $ $ $ 4.; ; ; ; $ u u ; ; ; ; ; ; ; ; $ o ; ; ; ; # # o $ ",
"o o ; ; X X # X X X + 4 O X # X X # o # X + @ X 1.X X X X # X X X + 4 O X # X @ X # ; u o o X @ + O S 1.2.S n b n X o o o o o o ",
"# # ; u @ @ X # X @ O + O O O X X # ; $ X + + X X @ @ @ @ X # X @ O + O O O + + + X # X X X @ @ + O 2 1 2 2 b b b S # X # X # # ",
"$ o ; 4.+ + + + + 4 O + + X 2.X X $ 4.; X + + X X @ @ + + + + + 4 O + + X 2.1.S S X 1.X X S @ @ + @ + 4 2 4 b 2 b S # # # # $ $ ",
"$ o o 2.X X X X # o o o o $ 4.X X o o X X X @ X # X X X X X X # o o o o $ u ; ; ; ; ; ; ; ; # X # $ u ; ; $ $ X X X # o # o ; $ ",
"X # # o o $ ; ; # # o # # # X X X @ X X X # X X # # o o $ ; ; # # o # # # X @ X X X X X S X o # @ + @ @ S S S S X 1.1.S + + + X ",
"X X # # o o $ o @ O O + + O O b b O + X X X X X X # # o o $ o @ O O + + O O O 4 O O + + O @ o # @ O 4 O + + O @ # # X + + + + X ",
"X # # # # o 2.1.X @ @ @ @ @ @ b b O O @ @ @ @ X # # # # o 2.1.X @ @ @ @ @ @ + O + @ @ @ O + o $ o @ O + X X @ @ X X @ + + + + X ",
"X X # # X # $ o # # $ $ # @ @ + + S + O + X X X X # # X # $ o # # $ $ # @ @ @ + + + + @ + @ # o # X @ o ; $ X X # # # X @ @ X X ",
"o o # o o o o o o o o o $ ; ; $ $ $ o o o o # o o # o o o o o o o o o $ ; ; $ $ $ $ $ 2.$ $ o o o o o o o o o o o o o $ o o # o ",
"X # X @ + @ @ + n b b b 4 O + @ @ X $ o # X X X # X @ + @ @ + n b b b 4 O + O O + X + n S 2.$ o # X # # # o 2.2.o o ; ; o # # X ",
"@ $ ; $ S + + n n n b b O + O @ @ + @ X @ @ + @ $ ; $ S + + n n n b b O + O O 4 @ X + O # $ $ o # # o # 1.2.2.2.o o # X X # # @ "
};
