/* XPM */
static char *d014ddae6f0743fbfd501e7d3f71ee4eLAupCYaAD7ManrIc[] = {
/* columns rows colors chars-per-pixel */
"64 64 174 2 ",
"   c #008080",
".  c white",
"X  c #484848",
"o  c gray36",
"O  c #2C2C2C",
"+  c gray22",
"@  c gray25",
"#  c gray33",
"$  c #646464",
"%  c #504C3C",
"&  c #484438",
"*  c #3C3828",
"=  c #5C5844",
"-  c #302C1C",
";  c gray44",
":  c #642C28",
">  c #582824",
",  c #4C2020",
"<  c #542C18",
"1  c gray8",
"2  c gray11",
"3  c #0C0C0C",
"4  c gray14",
"5  c #586048",
"6  c #686048",
"7  c #00001C",
"8  c #000024",
"9  c #080C38",
"0  c #040428",
"q  c #181C48",
"w  c #101440",
"e  c #040830",
"r  c #202450",
"t  c #303860",
"y  c #484C70",
"u  c #7C7C7C",
"i  c gray55",
"p  c gray66",
"a  c #989898",
"s  c #703428",
"d  c #582818",
"f  c #60341C",
"g  c #502014",
"h  c #7C3C2C",
"j  c #6C3C24",
"k  c #746C4C",
"l  c #282C58",
"z  c #3C4068",
"x  c #646880",
"c  c #545878",
"v  c #70788C",
"b  c #3C2020",
"n  c #482828",
"m  c #687084",
"M  c #341818",
"N  c #7C7850",
"B  c #481C10",
"V  c #401C1C",
"C  c #281414",
"Z  c #38140C",
"A  c #884030",
"S  c #503030",
"D  c #5C3C40",
"F  c #785060",
"G  c #886074",
"H  c #6C4450",
"J  c #402824",
"K  c #B4B4B4",
"L  c #18100C",
"P  c #242014",
"I  c black",
"U  c #744028",
"Y  c #5C3838",
"T  c #CC9474",
"R  c #C08464",
"E  c #A88080",
"W  c #BC9494",
"Q  c #945C40",
"!  c #A06848",
"~  c #804C30",
"^  c #B88060",
"/  c #34201C",
"(  c #B47858",
")  c #281814",
"_  c #A46C50",
"`  c #8C583C",
"'  c #1C0C0C",
"]  c #401810",
"[  c #787C94",
"{  c #280C08",
"}  c #301008",
"|  c #200C04",
" . c #BC6C00",
".. c #984830",
"X. c #DCA400",
"o. c #9C7474",
"O. c #FCFC20",
"+. c #180804",
"@. c #A45030",
"#. c #9C3C00",
"$. c #946868",
"%. c #888054",
"&. c #948C58",
"*. c #A0986C",
"=. c #80889C",
"-. c #888CA4",
";. c cyan",
":. c #C8CCD8",
">. c #C0C0C0",
",. c #646C50",
"<. c #9CA0B4",
"1. c #684040",
"2. c #744C4C",
"3. c #543030",
"4. c #7C5454",
"5. c #845034",
"6. c #78482C",
"7. c #986044",
"8. c #643820",
"9. c #7C8860",
"0. c #886060",
"q. c #B48C8C",
"w. c #405030",
"e. c #D0D0D0",
"r. c #583018",
"t. c #303000",
"y. c #1C1C00",
"u. c #F8F8F8",
"i. c #E4E4E4",
"p. c #304020",
"a. c #D4B0B0",
"s. c #A07C84",
"d. c #AC8890",
"f. c #500404",
"g. c #C8A0A0",
"h. c #AC7454",
"j. c #C48C6C",
"k. c #ECD0AC",
"l. c #580000",
"z. c #400000",
"x. c #946C7C",
"c. c #BC989C",
"v. c #1C0000",
"b. c #D4A07C",
"n. c #DCB08C",
"m. c #E4C09C",
"M. c #404000",
"N. c #140000",
"B. c #340000",
"V. c #280000",
"C. c #0C0804",
"Z. c #A4A8B8",
"A. c #140808",
"S. c #002000",
"D. c #B4B8C8",
"F. c #0C0C00",
"G. c #D0D4E0",
"H. c #ECE4E0",
"J. c gray99",
"K. c #D0C800",
"L. c #005000",
"P. c #700000",
"I. c #0C2404",
"U. c #1C3410",
"Y. c #B05C34",
"T. c #BC6434",
"R. c #C86C34",
"E. c #D47834",
"W. c #E08430",
"Q. c #781818",
"!. c #041400",
"~. c #8C2828",
"^. c #4C0C10",
"/. c #640C0C",
/* pixels */
"a p i 9.; ; $ X o ; 9.u ; a p p p a i i i i a p K K K K K K K K K K K p p ; i i p ; 9.$ i u u u 9.# u i i $ i i i i i u u 9.9.9.",
"$ i i ; $ $ $ ,.u u i u 9.i 9.9.i a 9.a p p a i u i u i i i i i i i $ $ $ ; i ; ; ; u ; u i ; $ ; # u $ $ 9.$ $ i i u u u u u 9.",
"u u u $ o $ $ ; u u ; u 9.u ; ; ; ; ; $ o o $ ; ; o o o 5 5 5 5 ,.,.9.9.9.# u ; u ; ; u u ; u $ $ $ ; $ ; 9.; u u i u u u i u u ",
"u $ $ 5 5 o $ ; ; 9.$ 9.9.u ; $ $ ; $ $ $ $ $ o o o o o ,.,.,.,.,.,.9.9.i X $ ; $ ; ; u u ; ; ; 9.9.u ; ; u $ u $ ; $ $ $ $ ; $ ",
"$ $ $ # o o 5 5 $ $ $ # ; u ; $ ; ; ; ; ; ; ; ; $ ; ; ; o o ,.,.,.,.9.9.a # $ ; $ ; ; ; ; ; ; ; ; 9.9.9.u ; ; ; ; $ $ $ $ $ $ $ ",
"$ $ $ $ $ 5 5 $ ; $ ; ; ; i 9.9.; ; 9.9.9.9.; u ; ; ; ; $ $ ,.,.,.9.9.9.a $ ; ; ; ; ; ; ; ; ; ; $ ; $ ; $ $ $ $ $ ; $ ; $ $ $ ; ",
"$ $ $ $ ; ; ; ; ; 9.K u ; 9.9.9.9.9.i i 9.9.; ; ; ; $ $ ,.,.,.9.,.9.9.9.i # 9.9.; $ $ u ; $ $ a u # # o ; ; $ $ ; $ $ u $ $ $ ; ",
"; $ # $ $ w.5 5 5 5 5 ; ; ; ; ; ; ; ; ; ; u o $ $ # o # # # # # # X # @ X @ # X ; ; ; u u u u ; $ $ $ o $ $ $ $ $ # $ $ # $ X $ ",
"i i p i i i i i p p i i p K i i K >.K p p K >.e.>.>.K p K K K p p p p p i i p p K K K K K p K p i i i i i i p p i i p p i i p i ",
"a i a p p p a ; ; ; u u i i u u i i p K K K K p p p p p i i a p a a p a p i ; ; ; ; ; $ $ ; ; ; $ o o $ ; ; $ o o $ u p a i a p ",
"9.9.9.9.9.9.9.; i u u u i i a p p i 9.i 9.9.9.9.9.9.; i i i a p a a p a p i ; ; ; ; ; ; $ $ o o $ o $ $ $ $ ,.X 5 ,.9.i 9.9.9.9.",
"9.9.9.9.9.9.9.; i u u u i i a p p i 9.i 9.9.9.9.9.9.; i 9.9.i i i a a i i i ; ; u ; ; $ $ $ $ $ $ $ $ u i u $ # 5 ,.9.9.9.9.9.9.",
"i ; ; ; 9.9.i u i i i i i i p p p a a i i i i ; ,.9.$ o $ ; 9.9.i a a i 9.9.9.9.; ; ; ; ; $ $ $ $ $ o $ ; $ o o 5 5 ; a i ; ; ; ",
"a 9.9.9.9.9.a u i i i i i a p p p a a a a a a i a a i i i i i i i a a i 9.9.; 9.i u ; ; ; ; ; ; $ $ ,.,.5 ,.,.5 5 5 9.p a 9.9.9.",
"a p p p p a a p p p p u i i a p p p p p p p p e.e.e.e.u.i.i.>.>.>.>.p a a a i u u u ; o o $ $ $ ,.,.,.,.,.,.,.,.X X 9.a p p 9.9.",
"; ; u u u u u 5 5 ,.9.9.9.9.9.; ; ; ; ; ; u u u u u 5 5 ,.9.9.9.9.9.; ; ; ; ; ; u u u u u i i i 9.i 9.9.; ; 9.9.,.,.,.,.5 ,.,.,.",
">.>.e.e.>.K p i.i.i.i.i.i.i.>.>.e.>.>.>.>.e.e.>.K p i.i.i.i.i.i.i.>.>.e.>.>.>.>.e.e.>.K p K >.>.p p p p K K p p p p i 9.9.a p i ",
">.>.>.>.p a a >.>.>.p p >.>.>.>.>.i.>.>.>.>.>.p a a >.>.>.p p >.>.>.>.>.i.>.>.>.>.>.p a a p p p p p p p p p p >.i.i.>.a 9.9.9.9.",
">.>.>.>.p i 9.>.>.p p p a a p p a p >.>.>.>.>.p i 9.>.>.p p p a a p p a p >.>.>.>.>.p i 9.a a a a a p a i i 9.9.i p p p a i 9.9.",
"p >.>.>.>.p 9.>.p p p p a a a a a p p p >.>.>.>.p 9.>.p p p p a a a a a p p p >.>.>.>.p 9.a i 9.o ; a p a i 9.9.9.; i p p p a i ",
">.>.>.>.>.>.a >.p p p p p a i i a K >.>.>.>.>.>.>.a >.p p p p p a i i a K >.>.>.>.>.>.>.a i a a i i p p i ; 9.9.; ; i p p a p p ",
"i.>.>.>.>.>.p >.K p p p p p p p >.>.>.i.>.>.>.>.>.p >.K p p p p p p p >.>.>.i.>.>.>.>.>.p a p p e.e.e.e.>.a 9.9.9.9.a >.i.i.e.p ",
",.,.,.9.$ 9.,.5 5 5 5 ,.,.,.,.9.,.,.,.,.,.,.9.$ 9.,.5 5 5 5 ,.,.,.,.9.,.,.,.,.,.,.9.$ 9.,.5 5 p.X X # # # # 5 5 X p.X X X X X p.",
",.,.; ; i p a p p p a $ a >.p p >.>.>.>.>.>.p p p p a a p p p p p p p p p p p a a p a a a a p p i i a a p p a a a i ,.,.,.a i ,.",
"i a a 9.,.9.9.9.9.i a a i p p i a a a a a a p p K K K K K K p p p p p p >.>.p p p p >.i.i.i.>.>.p a p p p p p p p p i 9.i p p i ",
"9.9.9.9.,.,.9.9.,.,.9.9.9.i i a a i i i a a i i i p p p p p p p a p a a p p p p >.i.>.i.i.>.p i a a p >.p a 9.i >.p a 9.9.a 9.9.",
"9.9.9.9.$ o $ $ ,.,.9.9.i i p >.p a a a i i i i i i p p a a a i a a i a p p a p >.i.e.p p a i i i i i a p >.p 9.a p >.u K u i 9.",
"9.9.9.9.$ ; ; ; ,.,.9.9.i a p p p p p p p p a a a a a p a a p p p p p a p p a 9.9.9.9.9.9.9.9.9.9.9.9.9.i 9.i i 9.i 9.u p i i 9.",
"9.9.9.9.i i i 9.9.9.9.9.i p p p p i.i.>.p p p p p p p p >.i.i.u.i.i.p p p p a i i i i i i i i i i p p a i i i i a i i i p K 9.9.",
"9.9.9.9.i i i 9.9.9.9.9.i p p p p i.i.>.p p p p p p p ,.9.,.o $ o X # $ i i i ; ; ; $ $ 9.,.,.9.9.9.9.9.9.9.; i 9.9.9.u a p 9.9.",
"o o $ $ ; ; ; ; ; ; 9.9.u ; ; $ ,.5 5 5 5 5 ,.,.,.9.,.i ; u u u u i i i u ; ; ; ; ; 9.9.9.9.,.,.,.,.,.,.,.; ; ; ; ; u u u ,.u 5 ",
"p p a a p p a p p p K K p p p K p i i a i 9.K K K K K K K K K K p K a a K K K >.K 9.>.>.>.>.K K >.K K >.K >.>.K a p p K K a a 9.",
"9.9.9.9.9.9.a p p a i i i i i i i i a p p a i a a i i a i a a a a a K a a a a K a ,.a a K K K K K >.K K K K K a i i a a a a a 9.",
",.,.,.,.,.9.9.9.p a i a a i 9.9.9.i a p p p i u u i i u i u u i i u i a a a a a i o a a i i a a i a K p K K K a u ,.i i i i i ,.",
"$ o $ $ $ $ 9.9.a a i i a a i 9.9.9.9.i i i i u u i i u i u u u u u i i i a a a a ; a a i i i i i a a a K K K K a ,.i u ,.,.9.,.",
"i ; $ ; $ $ 9.,.a a a a a p i i i i i i i i i i u i i i i i u ; ; u i a a a a a a $ a a a i u u i a K K K K K K K i u i i u u ,.",
"i $ ,.9.,.,.9.,.a a a a a i 9.i i i i i a a a i i a a i a i i a a a a p K a a a a ,.a a a a a a K K K >.K K K K K a i a a >.>.X ",
",.,.$ $ ; ; u u ; ; ; ; ; i i i i i i i 9.9.$ $ $ $ $ $ $ $ $ 9.9.9.$ $ $ $ $ $ ; $ # o o $ ; ; $ o # o o o ; u ,.5 5 ,.w.5 5 ,.",
"u 9.u u i i i i i a a i i i i a a i i i a a p a a p p a p a a p p p a i i i i a p i i i i i u u u u u u u u u u 9.9.9.9.u u u u ",
"a p K K p p p >.>.p p p p >.>.p p K K i u K a i i a a i a i i 9.9.i a 9.a p p a i >.>.p p p K K K >.>.K K p i a p p a 9.>.K K p ",
"i i i u u u 9.9.i 9.9.u 9.9.i 9.9.9.i i u i a a a a a K a a a a K a # u i i 9.9.9.i 9.9.u u u i i i i i i i i i i a a 9.i i i i ",
"i 9.i u u u i i i u u u i i i u u u i i ; i u u i i u i a a a a a i # ; i i u u u i i i u u u i i i ; ; ; u i i 9.i i 9.; ; ; u ",
"i i i p p i i i i i i i i i i i i u i u ; i u u u u u i i i a a a a # ; u i u i i i i i i p p i u ; i i i i i i i 9.9.9.i i i i ",
"i i p p p K K K p p p K K K p p p i i u ; i i u ; ; u i a a a a a a ,.i u i i p p p K K K p p p K K p p i i i i i i 9.9.p p i i ",
"i i K p p p i i p p i p i i p p i i i i ; a i i a a a a p K a a a a # u i i i i p p i i p p p K p p p p K p p i i i i 9.p p K p ",
"# X # # # # # # # # o # # # # # o o $ ; ; $ $ $ 9.9.9.$ $ $ $ $ $ ; $ ; ; $ o o # # # # # # # # o o o # # # X # X X $ ; o # # # ",
"p K >.>.>.$ p p K p i p K >.>.>.$ $ K K K p a a p p p a i i i i a p K K K K K K K K K K K p p i K K K K >.K p i a a a a p p K p ",
"; ; ; u u u 9.9.9.9.; ; ; ; u u u u i i i a i i 9.9.i a 9.a p p a i u i u i i i i i i i $ $ $ a p i 9.9.u i K K a a i 9.9.9.9.9.",
"9.9.9.9.9.,.9.9.9.9.9.9.9.9.9.9.,.9.9.9.9.9.i u ; ; ; ; ; $ o o $ ; ; o o o 5 5 5 5 ,.,.9.9.9.a p a i a i a 9.,.9.i i i 9.9.9.9.",
"i 9.9.9.9.9.9.9.9.9.9.i 9.9.9.9.9.,.9.9.; u i u ; $ $ ; $ $ $ $ $ o o o o o ,.,.,.,.,.,.9.9.i p p i i 9.9.9.9.; 9.9.9.; 9.9.9.9.",
"i 9.9.9.9.9.9.9.9.9.9.i 9.9.9.9.9.9.9.9.9.9.u u ; $ ; ; ; ; ; ; ; ; $ ; ; ; o o ,.,.,.,.9.9.a p p i i i i i i 9.; ; 9.9.9.9.9.9.",
"i i p p p >.p p p i 9.i i p p p >.p a 9.9.9.i i 9.9.; ; 9.9.9.9.; u ; ; ; ; $ $ ,.,.,.9.9.9.a p p a i i i i i i a 9.9.i p p p i ",
"9.9.9.i K K ,.,.,.9.9.9.9.9.i K K i 9.9.9.9.9.9.9.9.9.9.i i 9.9.; ; ; ; $ $ ,.,.,.9.,.9.9.9.i p p i 9.9.9.; i p ,.9.9.9.,.,.,.9.",
"p i i i u u p p p p p p i i i u u i i i i u 9.9.9.i i ; ; ; u u i i i i i i i i i i ; ; ; ; ; ; 9.9.9.9.9.9.9.i a p p p p p p p ",
">.>.>.p a p K >.K K K >.i i p K >.K K K >.>.K K K >.>.e.>.K p i.i.i.i.i.a a p K K K K p K a a K K K >.K a K K p p >.>.p p p p p ",
">.p 9.9.9.p p a i a a p a a p p a i a a p K p p p p p >.p a a >.>.>.p p 9.i i i a a a a a K a a a a K a i u i i 9.,.,.9.i a i 9.",
">.p p i i p p a i i p p a a p p a i i p p p p p p a i >.p i 9.>.>.p p p i i i i u u i i u i a a a a a i u ; u u ,.5 ,.9.9.i 9.9.",
"p p p p a p p i i a p p p p p p i i a p p p p p a i i >.>.p 9.>.p p p p i i 9.i u u u u u i i i a a a a i 9.u i 9.,.9.i i 9.9.9.",
"a a 9.9.9.p a a a a a p p p p a a a a a p p p p p i i >.>.>.a >.p p p p a i 9.i i u ; ; u i a a a a a a a u ; u u $ ,.9.i i 9.9.",
"i i 9.9.i p p K K K K K p p p p K K K K K K p p p p a >.>.>.p >.K p p p a a p a i i a a a a p K a a a a a i u i u $ 9.9.9.i $ $ ",
",.,.,.9.9.9.9.9.9.9.9.,.,.9.9.9.9.9.9.9.,.,.$ $ $ ; i 9.$ 9.,.5 5 5 5 ,.9.9.9.$ $ $ 9.9.9.$ $ $ $ $ $ ; ; # ,.,.9.9.i i 9.i a a ",
"p p p p p p p p p a p p p p p p p p p p p p p a p p >.p p p p p p a a p p p p p a a p p p a i i i i a p p p a i i i i i a i 9.9.",
"p i 9.9.; ; ,.9.9.$ u i i u 9.9.,.9.9.9.9.i $ $ p a i 9.i i a a a i i i i a a a i i 9.9.i a 9.a p p a i i i a p p i i 9.9.i i p ",
"p a 9.9.; ; 9.9.u u u i i u ; ; 9.9.9.9.9.,.,.9.9.9.9.9.; ; i 9.; ; ; 9.9.,.,.9.9.9.9.,.,.9.9.9.9.,.,.5 X p.X ,.9.9.9.9.i i 9.9."
};
