/* XPM */
static char *b48950e1d4e04a299cb1087915910d71Q5Ko4M8TqLm61Jm1[] = {
/* columns rows colors chars-per-pixel */
"64 64 174 2 ",
"   c #008080",
".  c white",
"X  c #484848",
"o  c gray36",
"O  c #2C2C2C",
"+  c gray22",
"@  c gray25",
"#  c gray33",
"$  c #646464",
"%  c #504C3C",
"&  c #484438",
"*  c #3C3828",
"=  c #5C5844",
"-  c #302C1C",
";  c gray44",
":  c #642C28",
">  c #582824",
",  c #4C2020",
"<  c #542C18",
"1  c gray8",
"2  c gray11",
"3  c #0C0C0C",
"4  c gray14",
"5  c #586048",
"6  c #686048",
"7  c #00001C",
"8  c #000024",
"9  c #080C38",
"0  c #040428",
"q  c #181C48",
"w  c #101440",
"e  c #040830",
"r  c #202450",
"t  c #303860",
"y  c #484C70",
"u  c #7C7C7C",
"i  c gray55",
"p  c gray66",
"a  c #989898",
"s  c #703428",
"d  c #582818",
"f  c #60341C",
"g  c #502014",
"h  c #7C3C2C",
"j  c #6C3C24",
"k  c #746C4C",
"l  c #282C58",
"z  c #3C4068",
"x  c #646880",
"c  c #545878",
"v  c #70788C",
"b  c #3C2020",
"n  c #482828",
"m  c #687084",
"M  c #341818",
"N  c #7C7850",
"B  c #481C10",
"V  c #401C1C",
"C  c #281414",
"Z  c #38140C",
"A  c #884030",
"S  c #503030",
"D  c #5C3C40",
"F  c #785060",
"G  c #886074",
"H  c #6C4450",
"J  c #402824",
"K  c #B4B4B4",
"L  c #18100C",
"P  c #242014",
"I  c black",
"U  c #744028",
"Y  c #5C3838",
"T  c #CC9474",
"R  c #C08464",
"E  c #A88080",
"W  c #BC9494",
"Q  c #945C40",
"!  c #A06848",
"~  c #804C30",
"^  c #B88060",
"/  c #34201C",
"(  c #B47858",
")  c #281814",
"_  c #A46C50",
"`  c #8C583C",
"'  c #1C0C0C",
"]  c #401810",
"[  c #787C94",
"{  c #280C08",
"}  c #301008",
"|  c #200C04",
" . c #BC6C00",
".. c #984830",
"X. c #DCA400",
"o. c #9C7474",
"O. c #FCFC20",
"+. c #180804",
"@. c #A45030",
"#. c #9C3C00",
"$. c #946868",
"%. c #888054",
"&. c #948C58",
"*. c #A0986C",
"=. c #80889C",
"-. c #888CA4",
";. c cyan",
":. c #C8CCD8",
">. c #C0C0C0",
",. c #646C50",
"<. c #9CA0B4",
"1. c #684040",
"2. c #744C4C",
"3. c #543030",
"4. c #7C5454",
"5. c #845034",
"6. c #78482C",
"7. c #986044",
"8. c #643820",
"9. c #7C8860",
"0. c #886060",
"q. c #B48C8C",
"w. c #405030",
"e. c #D0D0D0",
"r. c #583018",
"t. c #303000",
"y. c #1C1C00",
"u. c #F8F8F8",
"i. c #E4E4E4",
"p. c #304020",
"a. c #D4B0B0",
"s. c #A07C84",
"d. c #AC8890",
"f. c #500404",
"g. c #C8A0A0",
"h. c #AC7454",
"j. c #C48C6C",
"k. c #ECD0AC",
"l. c #580000",
"z. c #400000",
"x. c #946C7C",
"c. c #BC989C",
"v. c #1C0000",
"b. c #D4A07C",
"n. c #DCB08C",
"m. c #E4C09C",
"M. c #404000",
"N. c #140000",
"B. c #340000",
"V. c #280000",
"C. c #0C0804",
"Z. c #A4A8B8",
"A. c #140808",
"S. c #002000",
"D. c #B4B8C8",
"F. c #0C0C00",
"G. c #D0D4E0",
"H. c #ECE4E0",
"J. c gray99",
"K. c #D0C800",
"L. c #005000",
"P. c #700000",
"I. c #0C2404",
"U. c #1C3410",
"Y. c #B05C34",
"T. c #BC6434",
"R. c #C86C34",
"E. c #D47834",
"W. c #E08430",
"Q. c #781818",
"!. c #041400",
"~. c #8C2828",
"^. c #4C0C10",
"/. c #640C0C",
/* pixels */
": : > > > > > > > > > > , > > > > > > > : < : : > > > > > > > , > > > > > > > > : : < : : > > > > > > > > > > > > > > > > > < < ",
"s : > : > d f f d : g > f : f : d : f > s < s : d > > s d d > g f > f > s > f : s h < s : : d g d g : : > : > d s g : d d : : < ",
"s > : d : d d d f g d d > f g d > f , , : > s : > > d g > g d , g : f > s f d d : s > s d > d d g g > f f f d d : : g d g d s > ",
": d d g : g g d > d b f f g f > d g g d : , : d : d n d : d : g : > d d > > d : g s , : g g g g d g g : d > s d : : b d d d : , ",
"g s g g g g d > g b b d d g d g n g n d d b n d : : g s : d b n g g g > g n d g g g b n : n g d g d : g > g : g n b b d : g g b ",
"s g g g n g g n d d b g > : : d g g d g d M n n g d g : g g d : n g : g : d g g g n M g g d g n : g b g : d f n : d d : g d g M ",
"g g d > g n n n n d d > g : s : : d g g d M d g g > : d d g b d d b d : : g g n : d M g n g g : : g b : d > s n d d n > g g d M ",
"B d d d , , g d d g d > > d d : > d g g g M B d g g : d d d d d g g , , > d g g g g M B d d g d d d , , , , d , d d : , d d g M ",
", , , , , , , , , V , n n > n n n , n , V M B , > > , , , , , V V , , , , , , B B C M Z V V V , , , V , , V n V , , , , > > , M ",
": : d d : d s : s s A > A h s h h s : : : s s : s s : : : s A h , A s s s : : d d : s : d d f > : s : s h > s s s s s : : : : : ",
"g g n g g g g g > f s > h : n : s n > d d : d g n g d d d g s s , s : : d g g n > d g d g g g d f d b : s , s : g : g g d d g g ",
"g g g n n g g d g > s > s g g : : d d d d d g n g g n d n : b : > s > : n d d g g g g g g g g d g f g b : , : > d s g g g g d d ",
"g g g g n d g d b f : > : d g > : : f : n d d g g g g g g : n f > : : : g d g d g n d g g n g g g f g g > , f : : g d d g g d d ",
"> g g g d g g g b d d > g d > : : g g : : f > : : : : : > , s g > > : s : : d g g g : n g g n b > d f g g , , d b f g g d d g : ",
"g g d g d d g d : b d , > d > f : : > d d > : s s > > g > : : g > d : s d : d g : : : d d d f d g f > > f M f d g g d d d d n : ",
"g > g d d s g g d : g , , g d d d f d g : : s s : s s > > : > , > , : > : : : s > > g g g d > d d : : d , C > d b > : : n d n d ",
", d , , g d d d g d b , , , d d d d d d d > d : : > : : : d d g , g d > > : : > , d , , , d d , , > > , g C B , : d d d d d d d ",
", , , , , , > > V , V V b b V , , , , , , , n n , , , n , n b V V V V V n n n n , n n , , , n V n n V b C C Z V , , , , , , , , ",
"A h : : : s d : s d : h : : : : s : s h s < A s s s s h h s : : s : : : : s s s h s > A s s h : : : : s d : d s : d : s s h A < ",
"h : d g g g d g : d g : : g n : g g d s s < h d d f > g g : d d d d g b : > : g : h > h : b , > > g d n g , n d g n n d s : A < ",
"s > d g g d d d s s g : : > g : d g n s h > s g : > d f g g n : n g d > s d d g d : < : g b b g b n g g g g g n n g f g g g s > ",
"s d g g d : s d : d > : : g g g g n n n : , s d g d d : g n d d d g g d > d f g d d < d g b b d d g g g n g n n n d g n : g : , ",
"s d d d d d s : d g f d d d g g g d s g g b g g g > d > : d d d g g : s g d g d : g < g g g s g g d > g g d b n g g n s > g > b ",
": d g g g n , d g d : > d d d g s s s d g M d n > > g d n n n d g d > g d n g g d g g : d g g d f d g n b g g g n f n d f d d M ",
", n n d d d , b g : d > d d g d n n d d g M d d f b , d d g s d > d g g g g g d > g > g d d g g n n n b g n g d g n : b n d g M ",
"g d d d g g d g d > , , d d d d d d d d g M , , , , , g g , , d d d d , d d g d d g M B > d d d d d g g g g g g d d d d g d g M ",
", , , V , , , , , n , , , < < < < , B B V M ] V V V V V V V V V V , V , , , , V C C M Z M B , , , , , , , , , , n , n V V , , M ",
": : d : : : : s s s h : h h s s s s : : s h : : d f d : : : s h < : s s s s s : : s s : d s d : s s s h A < : h s s s s : : : : ",
"d d g g g : g g d : h > A d g g g d : d > g d d g g d d g g : h < : : g > d d d g : > g g s g g g g g : h < s : g g : d g : d d ",
"d g d d g : g n g : s > : d g d n g : d > d : d d : g d g d d s > : g s > : s d : g g g : n d n g g d g s > s d d d g : , d d d ",
"g g n d g : d d g : : , s s g n d n d > : : d g : d d g n : : s , s , s > : : : : : g d d : s b g : s > s , : d g g g d d g : d ",
": > > : n : : : : d d n d g n g n d g d > : d : : s s s s n : d b b d g d > > d n > > > d : g d g g s : : b d : d d > > : d > > ",
"d g g : : s : > : g d V g n g d : : g : > f > d d n s n n d d g M g d : d g g d f > d g > d , , d d d n n M > : d > d d d , , > ",
", f g > n n d > > f , V , : : g n n g : : > : g d : d n s s g g M g b g > g d g n g : g > > g > > g : : d M d : d d > > > : d > ",
"g d d > : d > , , , g M B d g > g d d , d : d g d d d d d d d g M g d g g d d d d g d d d , , d d d d d g M B g g d d g d d g d ",
", , , n n n , , V V C M Z B V V V > , > , n < > , , , > > V < V M g V B , , , , , , , n , , , , , , V V C M Z ] , < V , > , > , ",
"s s s s s s : s f f > h s d f s : h s h h > A h s s s s : s s d d h d d d s s s h s > s s s s s s s h : : d h > d s s : s h h > ",
"h s d d : g d g d g > g d g b d g g s : h > h s d d g g g g g g s g g g g g d g s h > h : g g : s d n g g g d d g g d d d : h : ",
"s : d d g s : d g d g g b g g g b g f : s > s d d d g n d g g g g g d s d g g > g s > s g g f : d d d d g d n s g g d d d b s > ",
"> d d d , b : d > > : b d d d g d , d d : < : d g : g d d g g g n g n b , > g d > : n : d : d : s g g d d s g g d b d g : d : > ",
"g d n d , d b d d : , , : : s s d s > > > > g : g g n g n d n d g d > d > d : s Y : b b > > > n d g g d n d g g b g g d g d g > ",
"d d d : : , b n d d g d s d g , , s : > f > g n n s d d g g : d d f f > s : f > > s b g g d g g g d g g s d g d b g g d d : d > ",
"d d d : : d d : d , s , , g g > g d f : , g g n s d d f : f d d g d > : f b n b d , b d g g g d > g : d d d n g b n d : : g d > ",
"B g g d d d g d g g , , , , , , , , , , ] , g g g , > , d , , d d d , , d , , , g ] M g d d > > d d d d d g g g g d d d d d , > ",
"> Y > > < > > > , , , , , , > > , > , S n , n , M V V V V V V b n ] V V M V V V V V M M V b b V V V V V ] , , < > < > > > > > , ",
"d s : d s s s : h s h < s s : s s s d s : s : : : : : s s s h s > h A s : h s > : : s : : : : : s s s h A < s s : s : : : h : f ",
"d g d g d b s d b f h < s d d d g g g d s f f d > g g n g n s s S A : d g b : b : > g d n : d d d d g : s < h s n g g d g d b d ",
"g d g g d d g b g g s > s g g d g n g g : g g g : g g g d s d s < s g d g g b : d > d g d d d : d d d d s > h b b s g g d b b b ",
"d g g s g g g g , g : , : : g g g g n d d n b d g g g g g g d f , d d d d : g b : d > b : b b d : d n d : , s b g s s b d b g d ",
"g g d g g g g g g g d b : n d g g g n g b b b g g g g g g g g d < n d d g g g > : d d b g : d d d n d s n b b s b b b b n g b g ",
"g g s d g g s g g g : M > n n g g g d b d b d g g d g g g d d d , d b b d b g , g : d d d d b d n n d b b M n d g d b b g g g b ",
"g g g d g g d g d > > M d g g g g g d d g d b g g d g d d g > d g g > d d d d d d , > d d g d g : n b g g M g n g n n n g g n n ",
"g d d g d g d d d > , M , d d g g g , g g g g d d d d > d d , g , , , > > d d , , , d d d d > d d d g d B M B g g g g g d g g g ",
"< , , , , , , , V , V M ] B V , , , , , , V , , , , , n , n b b b V n n n n n n , , , , , , n , n , , V V M B , , , , , , , , > ",
"h s s s s s : s s s s s : : : : h A s h s < : h s h h s s s : : : s s : s s s s h A < A h s s : : f s d : d s : d d : : : s A < ",
"h : g d d g > s s d : : g g > > g d d d s < s d g d d d : > > > > g d s g d d g s A < h s : g g b > , g g g g g b s b b d f s < ",
"s d d d d d : : g : : d d d > d : g g g s > s g g g : d : : > d g d g g g s d d d s > s : d g d , d g b b n g g g b g n d d : > ",
": d b d g d d g d g g g g g d > d > : d : , : g g d d d : > d g g d g g : s g , s s , : > > d g : d g d g d n g g g g g g g : , ",
"d d d g g d n d g g g g g g d > : : g : g b g d d g d g : : > g d d g g d d , d d b b : d > d d : b d : > g b n d n g g g g d b ",
": g g d g d g : b g g g g g g : d > > > g M > d g g g g : > > g g g g g g d d g d > M d : s , g n g : : d , b b s s n b b d b M ",
"g d g d d g g n g d g g d g f d d > : > : M : > > d : d > g d > g d : d d d g : : d M d d d : b d d : d > d g d d b d b g d b M ",
", : > > g > > f d f : g > g g > g > > > > M > > > > d d > > : g g : > g : > > : , > M , : , g b b d : > d : g : d g g f d > , M ",
", > , , > , , d , , > , > , , : d , , > ] M , > d , , d > > , , , , g , , > , > , ] M g , > , d > , , > , , > > d > > d , d g M ",
"b V V V b V V V V V b b V V b V V V V b V V b b b V b V V b V V V V V V V V b V V V V b V V V V V V V b V V V b V V V V V V V V "
};
